<svg xmlns="http://www.w3.org/2000/svg" viewBox="0 0 128 128">
  <defs>
    <linearGradient id="g" x1="0" y1="0" x2="1" y2="1">
      <stop offset="0" stop-color="#7c5cff"/>
      <stop offset="1" stop-color="#4fe0c8"/>
    </linearGradient>
  </defs>
  <rect width="128" height="128" rx="28" fill="#0b1220"/>
  <rect x="18" y="18" width="92" height="92" rx="18" fill="url(#g)" opacity="0.18"/>

  <!-- corner markers -->
  <path d="M32 44v-8a8 8 0 0 1 8-8h8" fill="none" stroke="url(#g)" stroke-width="8" stroke-linecap="round"/>
  <path d="M96 44v-8a8 8 0 0 0-8-8h-8" fill="none" stroke="url(#g)" stroke-width="8" stroke-linecap="round"/>
  <path d="M32 84v8a8 8 0 0 0 8 8h8" fill="none" stroke="url(#g)" stroke-width="8" stroke-linecap="round"/>
  <path d="M96 84v8a8 8 0 0 1-8 8h-8" fill="none" stroke="url(#g)" stroke-width="8" stroke-linecap="round"/>

  <!-- qr-ish squares -->
  <rect x="44" y="44" width="14" height="14" rx="3" fill="#eaf0ff" opacity="0.92"/>
  <rect x="70" y="44" width="14" height="14" rx="3" fill="#eaf0ff" opacity="0.92"/>
  <rect x="44" y="70" width="14" height="14" rx="3" fill="#eaf0ff" opacity="0.92"/>
  <rect x="70" y="70" width="14" height="14" rx="3" fill="#eaf0ff" opacity="0.92"/>
</svg>


